<svg width="141" height="142" viewBox="0 0 141 142" fill="none" xmlns="http://www.w3.org/2000/svg">
<path d="M13.5352 1.07562C12.2405 1.54641 9.88657 3.42956 8.23881 5.19502C5.76717 7.90206 5.29638 9.66752 4.94329 17.5532C4.4725 26.3805 4.59019 26.969 7.65032 30.0292L10.8282 33.207L7.76802 45.0944C3.64862 61.572 1.29467 76.8727 0.353091 93.5857C-0.47079 109.475 0.235394 114.654 2.94243 113.241C4.2371 112.417 4.70789 108.533 5.17868 95.822C5.76717 78.2851 8.8273 58.2765 13.1821 42.8582L15.8891 33.4424L41.5472 33.0893C55.5531 32.9716 67.0875 33.207 67.0875 33.6778C67.0875 34.2663 66.0282 38.6211 64.7335 43.4467C61.9088 54.2748 61.9088 54.0394 64.4981 54.0394C66.2636 54.0394 67.3229 51.8032 69.5591 43.682L72.3839 33.4424L77.5625 32.7362C84.7421 31.7946 87.3314 28.3814 86.8606 20.6134L86.5075 14.6108L79.7988 14.2577C72.0308 13.9046 71.0892 12.2569 75.9148 7.54897C79.5634 3.78266 84.8598 3.78266 88.7438 7.19588C90.98 9.19673 92.3924 12.8453 94.5109 21.0842C96.8649 30.853 97.5711 32.2654 99.925 32.6185C102.044 32.9716 102.514 32.6185 102.044 30.853C101.69 29.6761 100.278 24.4974 98.8658 19.3187C97.4534 14.14 95.4525 8.49055 94.6286 6.72509C91.2154 0.251736 89.3323 -0.101356 50.9629 0.0163409C31.6606 0.0163409 14.8299 0.48713 13.5352 1.07562ZM69.7945 8.13746C68.6175 10.6091 68.1467 14.2577 68.4998 19.9072L68.8529 28.146H40.6056C20.1262 28.146 11.8874 27.7929 10.8282 26.7336C10.0043 25.9098 9.41578 22.1434 9.41578 17.9063C9.41578 11.5507 9.88657 9.90292 12.3582 7.54897L15.183 4.60654H43.4303H71.56L69.7945 8.13746ZM82.1527 22.3788C81.4465 29.9115 73.9139 29.9115 73.2077 22.3788C72.8546 18.8479 72.9723 18.7302 77.6802 18.7302C82.3881 18.7302 82.5058 18.8479 82.1527 22.3788Z" fill="#112D4E"/>
<path d="M122.876 8.25516C120.875 9.31444 102.514 37.4441 100.631 42.5051C100.278 43.329 97.3357 45.3298 94.1579 46.7422C85.6836 50.6262 77.3271 59.5712 71.7954 70.6347C66.499 80.9921 66.3813 81.6983 68.8529 82.7576C70.1476 83.2284 71.9131 80.8744 75.3263 74.048C77.9156 68.987 81.5642 62.8667 83.5651 60.6305C86.8606 56.9819 97.3357 49.3315 99.3365 49.3315C99.6896 49.3315 97.3357 52.6271 93.9225 56.6288C85.5659 66.3976 75.6794 84.523 77.9156 85.9354C78.7395 86.5239 79.6811 86.9947 80.0342 86.9947C80.3873 86.9947 83.3297 82.1691 86.5075 76.1665C92.6278 65.103 101.808 53.5686 103.691 54.7456C104.28 55.0987 102.867 58.7473 100.631 62.9844C98.395 67.1038 94.6286 73.9303 92.3924 78.1674C88.5084 85.2292 88.3907 85.8177 90.3915 86.877C92.2747 87.8186 93.4517 86.1708 100.749 72.6356C107.34 60.2774 108.988 57.9234 109.223 60.3951C109.694 64.2791 106.516 75.578 103.221 81.4629C101.102 85.3469 100.984 86.0531 102.397 86.9947C106.163 89.3486 112.636 75.3426 113.813 62.3959C114.402 55.2164 115.343 53.3332 124.288 38.6211C137 17.9063 137.235 17.3179 135.47 13.0808C134.057 9.78523 129.82 6.84279 126.76 7.07819C125.936 7.07819 124.288 7.66667 122.876 8.25516ZM130.762 14.14C131.821 16.2586 130.644 18.8479 121.817 33.4424C110.518 52.1563 107.693 54.8633 104.633 49.2138C103.574 47.0953 104.751 44.5059 113.578 29.9115C119.11 20.6134 124.406 12.7277 125.112 12.3746C127.937 11.3153 129.467 11.6684 130.762 14.14Z" fill="#112D4E"/>
<path d="M61.2026 60.042C35.5446 63.3375 23.5395 69.6932 23.5395 79.6974C23.5395 82.0514 25.0695 88.2893 26.835 93.468C29.542 101.001 30.719 103.002 32.7199 103.237C34.1322 103.472 35.3092 103.355 35.3092 103.119C35.3092 102.766 34.0145 98.9998 32.3668 94.645C29.6597 87.5832 29.542 86.7593 31.4252 87.5832C56.377 98.0582 98.395 99.3529 124.759 90.5256C130.291 88.7601 134.881 87.3478 134.999 87.4655C135.117 87.5832 132.645 94.2919 129.467 102.295C125.583 111.947 124.053 117.361 124.759 118.067C125.583 118.891 126.525 118.655 127.702 117.596C130.409 114.771 140.178 88.1716 140.884 81.6983C141.825 72.4002 137.235 68.1631 120.287 62.8667C117.933 62.1605 117.58 62.3959 117.933 64.7499C118.168 66.633 119.58 67.6923 123.111 68.7516C125.701 69.5755 129.585 71.1055 131.586 72.2825C137.824 76.0488 137.706 79.462 131.233 82.993C127.466 84.9938 127.113 84.9938 125.701 83.1107C123.935 80.7567 115.226 76.4019 113.931 77.2258C111.812 78.5205 113.343 81.2275 116.991 82.7576C119.11 83.6991 121.228 84.8761 121.699 85.5823C123.229 88.0539 100.396 91.7026 82.3881 91.7026C70.2653 91.7026 50.4921 89.3486 44.8427 87.2301L41.9002 86.1708L44.8427 84.2876C46.4904 83.2284 51.316 81.4629 55.6708 80.4036C62.0265 78.7559 63.5566 77.932 63.5566 76.1665C63.5566 74.1657 62.9681 73.9303 59.7902 74.6365C50.9629 76.2842 43.3126 79.2266 40.3702 82.0514C37.31 84.8761 37.1923 84.8761 33.426 82.8753C26.2465 78.9913 27.1881 74.6365 36.1331 70.7524C42.2533 68.1631 57.9071 64.6322 63.4389 64.6322C68.3821 64.6322 70.6184 63.5729 70.6184 60.9836C70.6184 59.8066 70.2653 58.865 69.7945 58.865C69.206 58.9827 65.4397 59.4535 61.2026 60.042Z" fill="#112D4E"/>
<path d="M18.2431 110.299C16.3599 111.593 14.006 113.359 13.0644 114.418C12.2405 115.595 10.0043 116.419 8.12111 116.419C4.00171 116.419 0 120.538 0 124.658C0 128.777 4.00171 132.897 8.12111 132.897C10.0043 132.897 12.3582 133.956 13.6529 135.368C18.7139 141.018 20.0085 141.135 60.0256 141.135C100.043 141.135 101.337 141.018 106.398 135.368C107.693 133.956 110.047 132.897 111.93 132.897C116.05 132.897 120.051 128.777 120.051 124.658C120.051 120.538 116.05 116.419 111.93 116.419C110.047 116.419 107.693 115.36 106.398 113.947C101.337 108.298 100.16 108.18 59.7902 108.18C24.9518 108.18 21.4209 108.416 18.2431 110.299ZM31.6606 114.536C39.5463 118.655 39.3109 131.367 31.1898 135.015C27.3058 136.781 24.481 136.781 20.4793 135.015L17.3015 133.485L22.4802 132.308C33.1906 129.719 33.1906 119.597 22.4802 117.007C17.4192 115.831 17.4192 115.713 20.1262 114.418C24.0103 112.535 27.7766 112.535 31.6606 114.536ZM99.925 114.536C103.221 116.301 105.928 120.774 105.928 124.658C105.928 128.542 103.221 133.014 99.925 134.78C97.3357 136.074 90.3915 136.428 67.3229 136.428H37.8985L40.1348 132.073C41.3118 129.601 42.371 126.306 42.371 124.658C42.371 123.01 41.3118 119.715 40.1348 117.243L37.8985 112.888H67.3229C90.3915 112.888 97.3357 113.241 99.925 114.536ZM24.9518 123.245C27.5412 125.835 23.8926 127.483 14.7122 127.953C7.41493 128.424 5.76717 128.071 5.17868 126.541C4.82559 125.482 4.82559 123.834 5.17868 122.775C5.76717 121.245 7.41493 120.891 14.7122 121.362C19.5378 121.598 24.1279 122.422 24.9518 123.245ZM114.755 124.658C114.755 126.541 114.049 127.718 112.754 127.953C111.106 128.306 110.635 127.6 110.635 124.658C110.635 121.715 111.106 121.009 112.754 121.362C114.049 121.598 114.755 122.775 114.755 124.658Z" fill="#112D4E"/>
</svg>
