<svg width="36" height="40" viewBox="0 0 36 40" fill="none" xmlns="http://www.w3.org/2000/svg">
<path d="M2 34V6C2 3.79086 3.79086 2 6 2H32.8C33.4628 2 34 2.53726 34 3.2V29.4286" stroke="#112D4E" stroke-width="3" stroke-linecap="round"/>
<path d="M26 13.5595C26 14.7624 25.525 15.9177 24.6766 16.7722C22.7238 18.7402 20.83 20.7922 18.8042 22.6886C18.34 23.117 17.6034 23.1014 17.159 22.6536L11.323 16.7722C9.559 14.9945 9.559 12.1245 11.323 10.3468C13.1044 8.55158 16.0064 8.55158 17.7876 10.3468L17.9998 10.5605L18.2118 10.3469C19.066 9.48572 20.2292 9 21.4442 9C22.6594 9 23.8226 9.48568 24.6766 10.3468C25.525 11.2015 26 12.3567 26 13.5595Z" stroke="#112D4E" stroke-width="3" stroke-linejoin="round"/>
<path d="M6.00006 30H34.0001" stroke="#112D4E" stroke-width="3" stroke-linecap="round"/>
<path d="M6.00006 38H34.0001" stroke="#112D4E" stroke-width="3" stroke-linecap="round"/>
<path d="M6 38C3.79086 38 2 36.2092 2 34C2 31.7908 3.79086 30 6 30" stroke="#112D4E" stroke-width="3" stroke-linecap="round" stroke-linejoin="round"/>
</svg>
