<svg width="184" height="210" viewBox="0 0 184 210" fill="none" xmlns="http://www.w3.org/2000/svg">
<path d="M26.1734 0C24.3413 0 22.7709 0.261734 21.2005 0.785202C10.9928 2.87908 2.87908 10.9928 0.785202 21.2005C0 22.7709 0 24.3413 0 26.1734V170.127C0 191.851 17.5362 209.387 39.2601 209.387H183.214V183.214H39.2601C31.9316 183.214 26.1734 177.456 26.1734 170.127C26.1734 162.799 31.9316 157.04 39.2601 157.04H183.214V13.0867C183.214 5.75815 177.456 0 170.127 0H157.04V78.5202L130.867 52.3468L104.694 78.5202V0H26.1734Z" fill="black"/>
</svg>
