<?xml version="1.0" standalone="no"?>
<!DOCTYPE svg PUBLIC "-//W3C//DTD SVG 20010904//EN"
 "http://www.w3.org/TR/2001/REC-SVG-20010904/DTD/svg10.dtd">
<svg version="1.0" xmlns="http://www.w3.org/2000/svg"
 width="592.000000pt" height="592.000000pt" viewBox="0 0 592.000000 592.000000"
 preserveAspectRatio="xMidYMid meet">
<metadata>
Created by potrace 1.14, written by Peter Selinger 2001-2017
</metadata>
<g transform="translate(0.000000,592.000000) scale(0.100000,-0.100000)"
fill="#000000" stroke="none">
<path d="M1045 5913 c-58 -13 -166 -48 -205 -65 -144 -64 -282 -197 -354 -341
-25 -51 -46 -100 -46 -110 0 -9 -9 -40 -20 -69 -20 -52 -20 -78 -19 -2158 1
-1974 2 -2111 19 -2200 50 -266 170 -473 375 -645 64 -53 120 -95 130 -95 3 0
22 -11 43 -24 20 -14 71 -39 113 -55 110 -44 182 -62 309 -77 19 -2 955 -4
2080 -4 l2045 -1 3 366 2 366 -37 -1 c-21 0 -47 0 -58 0 -38 1 -130 1 -145 1
-8 -1 -33 0 -55 0 -22 1 -49 0 -60 0 -79 -5 -125 -5 -125 0 0 3 -20 3 -45 -1
-25 -4 -48 -4 -50 0 -3 4 -22 4 -42 1 -21 -4 -55 -4 -76 0 -21 3 -40 2 -43 -3
-3 -4 -9 -6 -14 -3 -9 6 -71 7 -153 3 -31 -2 -57 0 -57 3 0 3 -20 3 -45 -1
-25 -4 -48 -4 -50 0 -3 4 -22 4 -42 1 -21 -4 -55 -4 -76 0 -21 3 -40 2 -43 -3
-3 -4 -9 -6 -14 -3 -9 6 -71 7 -153 3 -31 -2 -57 0 -57 3 0 3 -20 3 -45 -1
-25 -4 -48 -4 -50 0 -3 4 -22 4 -42 1 -21 -4 -55 -4 -76 0 -21 3 -40 2 -43 -3
-3 -4 -9 -6 -14 -3 -9 6 -71 7 -153 3 -31 -2 -57 0 -57 3 0 3 -20 3 -45 -1
-25 -4 -48 -4 -50 0 -3 4 -22 4 -42 1 -21 -4 -55 -4 -76 0 -21 3 -40 2 -43 -3
-3 -4 -9 -6 -14 -3 -9 6 -71 7 -153 3 -31 -2 -57 0 -57 3 0 3 -20 3 -45 -1
-25 -4 -48 -4 -50 0 -3 4 -22 4 -42 1 -21 -4 -55 -4 -76 0 -21 3 -40 2 -43 -3
-3 -4 -9 -6 -14 -3 -9 6 -71 7 -153 3 -31 -2 -57 0 -57 3 0 3 -20 3 -45 -1
-25 -4 -48 -4 -50 0 -3 4 -22 4 -42 1 -21 -4 -55 -4 -76 0 -21 3 -40 2 -43 -3
-3 -4 -9 -6 -14 -3 -9 6 -71 7 -153 3 -31 -2 -57 0 -57 3 0 3 -20 3 -45 -1
-25 -4 -48 -4 -50 0 -2 4 -21 4 -42 1 -21 -4 -55 -4 -76 0 -20 3 -40 2 -43 -2
-3 -5 -9 -7 -14 -4 -9 6 -71 7 -153 3 -31 -2 -57 -1 -57 2 0 4 -106 4 -120 0
-5 -2 -71 1 -105 5 -122 12 -229 86 -285 194 -27 53 -34 93 -34 181 0 63 5 85
32 140 36 75 60 104 122 147 102 69 -75 64 2189 64 l2041 0 0 2043 c0 1872 -2
2047 -17 2092 -9 27 -19 51 -23 54 -4 3 -10 14 -14 25 -5 18 -45 62 -96 107
-8 8 -40 25 -70 38 -53 24 -62 25 -283 25 l-229 0 1 -1094 0 -1095 -366 366
-366 366 -363 -364 c-200 -201 -364 -363 -365 -362 -1 2 -2 494 -3 1093 l-1
1090 -1130 1 c-621 1 -1139 0 -1150 -3z"/>
</g>
</svg>
