<svg width="19" height="16" viewBox="0 0 19 16" fill="none" xmlns="http://www.w3.org/2000/svg">
<path d="M13.0625 0C11.8512 0 10.8063 0.699126 10.165 1.7578C11.2338 2.83645 11.875 4.31461 11.875 6.01248C11.875 6.59176 11.8038 7.11111 11.6612 7.63046C12.1125 7.85019 12.5638 8.00999 13.0625 8.00999C15.0337 8.00999 16.625 6.21223 16.625 4.01498C16.625 1.81773 15.0337 0.019975 13.0625 0.019975V0ZM5.9375 1.9975C3.96625 1.9975 2.375 3.79526 2.375 5.99251C2.375 8.18976 3.96625 9.98752 5.9375 9.98752C7.90875 9.98752 9.5 8.18976 9.5 5.99251C9.5 3.79526 7.90875 1.9975 5.9375 1.9975ZM17.2188 8.30961C16.1975 9.32834 14.7963 9.94757 13.205 9.98752C13.8462 10.7466 14.25 11.6654 14.25 12.6642V13.9825H19V10.6667C19 9.62796 18.2638 8.72909 17.2188 8.28964V8.30961ZM1.78125 10.3071C0.73625 10.7466 0 11.6454 0 12.6841V16H11.875V12.6841C11.875 11.6454 11.1388 10.7466 10.0938 10.3071C9.025 11.3658 7.57625 11.985 5.9375 11.985C4.29875 11.985 2.85 11.3458 1.78125 10.3071Z" fill="#112D4E"/>
</svg>
