<svg width="15" height="15" viewBox="0 0 15 15" fill="none" xmlns="http://www.w3.org/2000/svg">
<path d="M7.5 0C3.375 0 0 3.375 0 7.5C0 11.625 3.375 15 7.5 15C11.625 15 15 11.625 15 7.5C15 3.375 11.625 0 7.5 0ZM7.5 1.875C10.6125 1.875 13.125 4.3875 13.125 7.5C13.125 10.6125 10.6125 13.125 7.5 13.125C4.3875 13.125 1.875 10.6125 1.875 7.5C1.875 4.3875 4.3875 1.875 7.5 1.875ZM6.5625 3.75V7.9125L6.8625 8.15625L7.8 9.09375L8.4375 9.80625L9.7875 8.45625L9.075 7.81875L8.4375 7.18125V3.7875H6.5625V3.75Z" fill="#112D4E"/>
</svg>
